# xmcd
#
# Track frame offsets:
#	150
#	19587
#	36230
#	51642
#	67797
#	86685
#	102232
#	118345
#	137152
#	153590
#	167540
#	183355
#	202845
#
# Disc length: 2915 seconds
#
# Revision: 3
# Processed by: cddbd v1.5.2PL0 Copyright (c) Steve Scherf et al.
# Submitted via: audiograbber 1.83.01
#
DISCID=ae0b610d
DTITLE=Trisha Yearwood - Inside Out
DYEAR=2001
DGENRE=Country
TTITLE0=Love Alone
TTITLE1=I Would've Loved You Anyway
TTITLE2=For A While
TTITLE3=Seven Year Ache
TTITLE4=I Don't Paint Myself Into Corners
TTITLE5=Harmless Heart
TTITLE6=Inside Out
TTITLE7=Love Let Go
TTITLE8=Melancholy Blue
TTITLE9=Second Chance
TTITLE10=Love Me Or Leave Me Alone
TTITLE11=When We Were Still In Love
TTITLE12=Squeeze Me In
EXTD=
EXTT0=
EXTT1=
EXTT2=
EXTT3=
EXTT4=
EXTT5=
EXTT6=
EXTT7=
EXTT8=
EXTT9=
EXTT10=
EXTT11=
EXTT12=
PLAYORDER=
